# xmcd
#
# Track frame offsets:
#	150
#	20510
#	46697
#	80355
#	102852
#	121107
#	138980
#	159440
#	184887
#	209345
#
# Disc length: 3139 seconds
#
# Revision: 1
# Processed by: cddbd v1.4PL0 Copyright (c) Steve Scherf et al.
# Submitted via: EasyCDDAExtractor 5.0.7
#
DISCID=780c410a
DTITLE=Various Artist - Nho Ve Anh
DYEAR=1900
DGENRE=Vietnamese
TTITLE0=Huong Lan - Linh Xa Nha
TTITLE1=Thanh Tuyen - Gio Nay Anh O Dau
TTITLE2=Giao Linh - Vuon Tao Ngo
TTITLE3=Duy Quang - Hanh Trang Gia Tu
TTITLE4=Mai Vi - Buc Tam Thu
TTITLE5=Thanh Tuyen - Goi Nguoi Chien Tuyen
TTITLE6=Huong Lan - Bien Man
TTITLE7=Duy Quang - Hoa Bien
TTITLE8=Huong Lan - Chuyen Bay Dem
TTITLE9=Thanh Tuyen - Anh Khong Chet Dau Em
EXTD=
EXTT0=
EXTT1=
EXTT2=
EXTT3=
EXTT4=
EXTT5=
EXTT6=
EXTT7=
EXTT8=
EXTT9=
PLAYORDER=
